<svg xmlns="http://www.w3.org/2000/svg" xmlns:xlink="http://www.w3.org/1999/xlink" width="1080" zoomAndPan="magnify" viewBox="0 0 810 809.999993" height="1080" preserveAspectRatio="xMidYMid meet" version="1.0"><defs><clipPath id="fb4bc58fab"><path d="M 81 81 L 713.25 81 L 713.25 713.25 L 81 713.25 Z M 81 81 " clip-rule="nonzero"/></clipPath></defs><g clip-path="url(#fb4bc58fab)"><path fill="#ffffff" d="M 683.554688 342.988281 C 669.332031 333.863281 664.433594 315.613281 672.175781 300.5625 C 682.210938 281.046875 681.695312 258.015625 670.675781 239.015625 C 659.691406 220.015625 640.058594 208.003906 618.09375 206.9375 C 601.1875 206.109375 587.875 192.796875 587.046875 175.886719 C 585.976562 153.964844 574.007812 134.289062 554.96875 123.308594 C 535.925781 112.328125 512.9375 111.773438 493.421875 121.808594 C 478.410156 129.550781 460.160156 124.652344 450.992188 110.429688 C 439.183594 92.023438 418.996094 81 397.03125 81 C 375.066406 81 354.878906 92.023438 342.988281 110.507812 C 333.863281 124.730469 315.613281 129.628906 300.5625 121.886719 C 281.046875 111.8125 258.015625 112.367188 239.015625 123.347656 C 220.015625 134.332031 208.003906 153.964844 206.9375 175.929688 C 206.109375 192.835938 192.796875 206.148438 175.886719 206.976562 C 153.964844 208.042969 134.289062 220.015625 123.308594 239.054688 C 112.328125 258.054688 111.773438 281.085938 121.808594 300.601562 C 129.550781 315.613281 124.652344 333.863281 110.429688 343.03125 C 92.023438 354.878906 81 375.066406 81 397.03125 C 81 418.996094 92.023438 439.183594 110.507812 451.074219 C 124.730469 460.199219 129.628906 478.449219 121.886719 493.5 C 111.851562 513.015625 112.367188 536.046875 123.386719 555.046875 C 134.371094 574.046875 154.003906 586.058594 175.96875 587.125 C 192.875 587.953125 206.1875 601.265625 207.015625 618.175781 C 208.085938 640.097656 220.054688 659.773438 239.09375 670.753906 C 258.136719 681.734375 281.125 682.289062 300.640625 672.253906 C 315.691406 664.511719 333.902344 669.410156 343.070312 683.632812 C 354.878906 702.039062 375.066406 713.0625 397.03125 713.0625 C 418.996094 713.0625 439.183594 702.039062 451.074219 683.554688 C 460.199219 669.332031 478.449219 664.433594 493.5 672.175781 C 513.015625 682.25 536.046875 681.65625 555.046875 670.675781 C 574.046875 659.691406 586.058594 640.058594 587.125 618.09375 C 587.953125 601.1875 601.265625 587.875 618.175781 587.046875 C 640.097656 585.976562 659.773438 574.007812 670.753906 554.96875 C 681.734375 535.964844 682.289062 512.9375 672.253906 493.421875 C 664.511719 478.410156 669.410156 460.160156 683.632812 450.992188 C 702.039062 439.183594 713.0625 418.996094 713.0625 397.03125 C 713.0625 375.066406 702.039062 354.878906 683.554688 342.988281 Z M 666.488281 424.488281 C 638.519531 442.5 628.878906 478.371094 644.128906 507.957031 C 649.304688 518.03125 649.027344 529.449219 643.378906 539.246094 C 637.726562 549.042969 627.972656 555.007812 616.671875 555.519531 C 583.449219 557.101562 557.179688 583.371094 555.558594 616.632812 C 555.007812 627.929688 549.082031 637.6875 539.285156 643.339844 C 529.488281 648.988281 518.070312 649.304688 507.996094 644.089844 C 478.410156 628.878906 442.539062 638.480469 424.527344 666.449219 C 418.363281 676.007812 408.367188 681.460938 397.03125 681.460938 C 385.695312 681.460938 375.699219 676.007812 369.574219 666.488281 C 357.328125 647.445312 336.828125 636.9375 315.652344 636.9375 C 305.699219 636.9375 295.585938 639.269531 286.105469 644.128906 C 276.03125 649.304688 264.652344 649.066406 254.816406 643.378906 C 245.019531 637.730469 239.054688 627.972656 238.542969 616.671875 C 236.960938 583.449219 210.691406 557.179688 177.429688 555.558594 C 166.132812 555.007812 156.375 549.082031 150.722656 539.285156 C 145.074219 529.488281 144.796875 518.070312 149.972656 507.996094 C 165.222656 478.410156 155.582031 442.539062 127.613281 424.527344 C 118.054688 418.363281 112.601562 408.367188 112.601562 397.03125 C 112.601562 385.695312 118.054688 375.699219 127.574219 369.574219 C 155.542969 351.5625 165.183594 315.691406 149.933594 286.105469 C 144.757812 276.03125 145.035156 264.613281 150.683594 254.816406 C 156.332031 245.019531 166.089844 239.054688 177.390625 238.542969 C 210.613281 236.960938 236.882812 210.691406 238.503906 177.429688 C 239.054688 166.132812 244.980469 156.375 254.777344 150.722656 C 264.613281 145.074219 275.992188 144.800781 286.066406 149.972656 C 315.652344 165.222656 351.523438 155.582031 369.535156 127.613281 C 375.699219 118.054688 385.695312 112.601562 397.03125 112.601562 C 408.367188 112.601562 418.363281 118.054688 424.488281 127.574219 C 442.5 155.542969 478.371094 165.144531 507.957031 149.933594 C 518.03125 144.757812 529.410156 145.035156 539.246094 150.683594 C 549.042969 156.332031 555.007812 166.089844 555.519531 177.390625 C 557.101562 210.613281 583.371094 236.882812 616.632812 238.503906 C 627.929688 239.054688 637.6875 244.980469 643.339844 254.777344 C 648.988281 264.574219 649.261719 275.992188 644.089844 286.066406 C 628.839844 315.652344 638.480469 351.523438 666.449219 369.535156 C 676.007812 375.699219 681.460938 385.695312 681.460938 397.03125 C 681.460938 408.367188 676.007812 418.363281 666.488281 424.488281 Z M 539.246094 311.464844 L 514.199219 286.421875 C 501.875 274.09375 481.804688 274.09375 469.519531 286.421875 L 365.429688 390.472656 L 324.582031 349.625 C 312.253906 337.300781 292.1875 337.300781 279.902344 349.625 L 254.816406 374.671875 C 242.492188 386.996094 242.492188 407.027344 254.816406 419.351562 L 331.929688 496.460938 C 341.171875 505.707031 353.300781 510.328125 365.429688 510.328125 C 377.554688 510.328125 389.683594 505.707031 398.925781 496.460938 L 539.246094 356.183594 C 551.570312 343.859375 551.570312 323.789062 539.246094 311.464844 Z M 376.609375 474.144531 C 370.445312 480.304688 360.410156 480.304688 354.25 474.144531 L 277.175781 397.03125 L 302.222656 371.984375 L 354.25 424.011719 C 360.410156 430.175781 370.40625 430.175781 376.609375 424.011719 L 491.839844 308.78125 L 516.886719 333.824219 Z M 345.359375 596.527344 C 343.109375 603.082031 336.984375 607.230469 330.425781 607.230469 C 328.730469 607.230469 326.992188 606.953125 325.292969 606.363281 C 235.894531 575.707031 175.808594 491.605469 175.808594 397.03125 C 175.808594 288.039062 253.75 196.234375 361.160156 178.691406 C 369.851562 177.308594 377.910156 183.117188 379.292969 191.730469 C 380.714844 200.339844 374.871094 208.480469 366.257812 209.863281 C 274.214844 224.914062 207.414062 303.605469 207.414062 397.03125 C 207.414062 478.09375 258.925781 550.1875 335.5625 576.457031 C 343.820312 579.300781 348.203125 588.269531 345.359375 596.527344 Z M 397.03125 602.453125 C 397.03125 611.183594 389.960938 618.253906 381.230469 618.253906 C 372.5 618.253906 365.429688 611.183594 365.429688 602.453125 C 365.429688 593.722656 372.5 586.648438 381.230469 586.648438 C 389.960938 586.648438 397.03125 593.722656 397.03125 602.453125 Z M 618.253906 397.03125 C 618.253906 506.023438 540.3125 597.828125 432.902344 615.371094 C 432.03125 615.527344 431.164062 615.566406 430.332031 615.566406 C 422.707031 615.566406 416.03125 610.074219 414.769531 602.292969 C 413.347656 593.683594 419.191406 585.542969 427.804688 584.160156 C 519.847656 569.148438 586.648438 490.457031 586.648438 397.03125 C 586.648438 315.96875 535.136719 243.875 458.5 217.605469 C 450.242188 214.800781 445.859375 205.792969 448.664062 197.535156 C 451.46875 189.28125 460.472656 184.855469 468.730469 187.699219 C 558.167969 218.355469 618.253906 302.457031 618.253906 397.03125 Z M 397.03125 191.609375 C 397.03125 182.878906 404.101562 175.808594 412.832031 175.808594 C 421.5625 175.808594 428.632812 182.878906 428.632812 191.609375 C 428.632812 200.339844 421.5625 207.414062 412.832031 207.414062 C 404.101562 207.414062 397.03125 200.339844 397.03125 191.609375 Z M 397.03125 191.609375 " fill-opacity="1" fill-rule="nonzero"/></g></svg>