<svg xmlns="http://www.w3.org/2000/svg" xmlns:xlink="http://www.w3.org/1999/xlink" width="1080" zoomAndPan="magnify" viewBox="0 0 810 809.999993" height="1080" preserveAspectRatio="xMidYMid meet" version="1.0"><defs><clipPath id="09c342de8e"><path d="M 59.277344 94 L 735 94 L 735 754.464844 L 59.277344 754.464844 Z M 59.277344 94 " clip-rule="nonzero"/></clipPath><clipPath id="6fd85a71d5"><path d="M 195 55.464844 L 750.777344 55.464844 L 750.777344 615 L 195 615 Z M 195 55.464844 " clip-rule="nonzero"/></clipPath></defs><g clip-path="url(#09c342de8e)"><path fill="#ffffff" d="M 396.984375 94.34375 C 210.839844 94.34375 59.277344 242.40625 59.277344 424.25 C 59.277344 606.097656 210.839844 754.152344 396.984375 754.152344 C 583.132812 754.152344 734.691406 606.09375 734.691406 424.25 C 734.691406 345.632812 707.460938 275.328125 661.214844 217.730469 L 629.417969 254.546875 C 669.734375 303.039062 685.511719 356.878906 685.511719 424.25 C 685.511719 580.085938 556.503906 706.035156 396.984375 706.035156 C 237.460938 706.035156 108.453125 580.082031 108.453125 424.25 C 108.453125 268.414062 237.460938 142.390625 396.984375 142.390625 C 447.53125 142.390625 485.335938 149.488281 526.617188 171.757812 L 556.824219 133 C 508.5 106.929688 455.96875 94.347656 396.984375 94.347656 Z M 396.984375 94.34375 " fill-opacity="1" fill-rule="evenodd"/></g><g clip-path="url(#6fd85a71d5)"><path fill="#ffffff" d="M 271.996094 380.863281 C 285.613281 380.863281 295.914062 391.777344 302.898438 413.609375 C 316.863281 454.539062 326.816406 475.007812 332.753906 475.007812 C 337.292969 475.007812 342.003906 471.597656 346.894531 464.777344 C 445.011719 311.277344 535.800781 187.109375 619.25 92.28125 C 640.898438 67.722656 675.292969 55.441406 722.433594 55.441406 C 733.605469 55.441406 741.113281 56.464844 744.957031 58.511719 C 748.796875 60.558594 750.714844 63.117188 750.71875 66.1875 C 750.714844 70.960938 744.953125 80.34375 733.433594 94.328125 C 598.648438 252.605469 473.644531 419.75 358.414062 595.78125 C 350.382812 608.058594 333.972656 614.199219 309.183594 614.199219 C 284.042969 614.199219 269.199219 613.175781 264.664062 611.128906 C 252.789062 606.011719 238.824219 579.917969 222.757812 532.84375 C 204.601562 480.65625 195.523438 447.90625 195.523438 434.605469 C 195.523438 420.277344 207.746094 406.460938 232.1875 393.160156 C 247.203125 384.972656 260.46875 380.882812 271.992188 380.878906 " fill-opacity="1" fill-rule="nonzero"/></g></svg>