<svg xmlns="http://www.w3.org/2000/svg" xmlns:xlink="http://www.w3.org/1999/xlink" width="1080" zoomAndPan="magnify" viewBox="0 0 810 809.999993" height="1080" preserveAspectRatio="xMidYMid meet" version="1.0"><defs><clipPath id="f34ae0f091"><path d="M 107 107 L 688 107 L 688 688 L 107 688 Z M 107 107 " clip-rule="nonzero"/></clipPath><clipPath id="24b72b66f3"><path d="M 107.375 226.066406 C 107.375 160.515625 160.515625 107.375 226.066406 107.375 L 292.007812 107.375 C 306.574219 107.375 318.382812 119.183594 318.382812 133.753906 C 318.382812 148.320312 306.574219 160.128906 292.007812 160.128906 L 226.066406 160.128906 C 189.648438 160.128906 160.128906 189.648438 160.128906 226.066406 L 160.128906 292.007812 C 160.128906 306.574219 148.320312 318.382812 133.75 318.382812 C 119.183594 318.382812 107.375 306.574219 107.375 292.007812 Z M 476.640625 133.753906 C 476.640625 119.183594 488.449219 107.375 503.015625 107.375 L 568.957031 107.375 C 634.507812 107.375 687.648438 160.515625 687.648438 226.066406 L 687.648438 292.007812 C 687.648438 306.574219 675.839844 318.382812 661.269531 318.382812 C 646.703125 318.382812 634.894531 306.574219 634.894531 292.007812 L 634.894531 226.066406 C 634.894531 189.648438 605.371094 160.128906 568.957031 160.128906 L 503.015625 160.128906 C 488.449219 160.128906 476.640625 148.320312 476.640625 133.753906 Z M 133.75 476.640625 C 148.320312 476.640625 160.128906 488.449219 160.128906 503.015625 L 160.128906 568.957031 C 160.128906 605.371094 189.648438 634.894531 226.066406 634.894531 L 292.007812 634.894531 C 306.574219 634.894531 318.382812 646.703125 318.382812 661.269531 C 318.382812 675.839844 306.574219 687.648438 292.007812 687.648438 L 226.066406 687.648438 C 160.515625 687.648438 107.375 634.507812 107.375 568.957031 L 107.375 503.015625 C 107.375 488.449219 119.183594 476.640625 133.75 476.640625 Z M 661.269531 476.640625 C 675.839844 476.640625 687.648438 488.449219 687.648438 503.015625 L 687.648438 568.957031 C 687.648438 634.507812 634.507812 687.648438 568.957031 687.648438 L 503.015625 687.648438 C 488.449219 687.648438 476.640625 675.839844 476.640625 661.269531 C 476.640625 646.703125 488.449219 634.894531 503.015625 634.894531 L 568.957031 634.894531 C 605.371094 634.894531 634.894531 605.371094 634.894531 568.957031 L 634.894531 503.015625 C 634.894531 488.449219 646.703125 476.640625 661.269531 476.640625 Z M 173.316406 252.445312 C 173.316406 208.742188 208.742188 173.316406 252.445312 173.316406 L 305.195312 173.316406 C 348.898438 173.316406 384.324219 208.742188 384.324219 252.445312 L 384.324219 305.195312 C 384.324219 348.898438 348.898438 384.324219 305.195312 384.324219 L 252.445312 384.324219 C 208.742188 384.324219 173.316406 348.898438 173.316406 305.195312 Z M 252.445312 226.066406 C 237.875 226.066406 226.066406 237.875 226.066406 252.445312 L 226.066406 305.195312 C 226.066406 319.761719 237.875 331.570312 252.445312 331.570312 L 305.195312 331.570312 C 319.761719 331.570312 331.570312 319.761719 331.570312 305.195312 L 331.570312 252.445312 C 331.570312 237.875 319.761719 226.066406 305.195312 226.066406 Z M 252.445312 410.699219 C 208.742188 410.699219 173.316406 446.125 173.316406 489.828125 L 173.316406 542.578125 C 173.316406 586.28125 208.742188 621.707031 252.445312 621.707031 L 305.195312 621.707031 C 348.898438 621.707031 384.324219 586.28125 384.324219 542.578125 L 384.324219 489.828125 C 384.324219 446.125 348.898438 410.699219 305.195312 410.699219 Z M 226.066406 489.828125 C 226.066406 475.261719 237.875 463.453125 252.445312 463.453125 L 305.195312 463.453125 C 319.761719 463.453125 331.570312 475.261719 331.570312 489.828125 L 331.570312 542.578125 C 331.570312 557.148438 319.761719 568.957031 305.195312 568.957031 L 252.445312 568.957031 C 237.875 568.957031 226.066406 557.148438 226.066406 542.578125 Z M 410.699219 252.445312 C 410.699219 208.742188 446.125 173.316406 489.828125 173.316406 L 542.578125 173.316406 C 586.28125 173.316406 621.707031 208.742188 621.707031 252.445312 L 621.707031 305.195312 C 621.707031 348.898438 586.28125 384.324219 542.578125 384.324219 L 489.828125 384.324219 C 446.125 384.324219 410.699219 348.898438 410.699219 305.195312 Z M 489.828125 226.066406 C 475.261719 226.066406 463.453125 237.875 463.453125 252.445312 L 463.453125 305.195312 C 463.453125 319.761719 475.261719 331.570312 489.828125 331.570312 L 542.578125 331.570312 C 557.148438 331.570312 568.957031 319.761719 568.957031 305.195312 L 568.957031 252.445312 C 568.957031 237.875 557.148438 226.066406 542.578125 226.066406 Z M 489.828125 410.699219 C 446.125 410.699219 410.699219 446.125 410.699219 489.828125 L 410.699219 542.578125 C 410.699219 586.28125 446.125 621.707031 489.828125 621.707031 L 542.578125 621.707031 C 586.28125 621.707031 621.707031 586.28125 621.707031 542.578125 L 621.707031 489.828125 C 621.707031 446.125 586.28125 410.699219 542.578125 410.699219 Z M 463.453125 489.828125 C 463.453125 475.261719 475.261719 463.453125 489.828125 463.453125 L 542.578125 463.453125 C 557.148438 463.453125 568.957031 475.261719 568.957031 489.828125 L 568.957031 542.578125 C 568.957031 557.148438 557.148438 568.957031 542.578125 568.957031 L 489.828125 568.957031 C 475.261719 568.957031 463.453125 557.148438 463.453125 542.578125 Z M 463.453125 489.828125 " clip-rule="evenodd"/></clipPath></defs><g clip-path="url(#f34ae0f091)"><g clip-path="url(#24b72b66f3)"><path fill="#ffffff" d="M 107.375 107.375 L 107.375 687.648438 L 687.648438 687.648438 L 687.648438 107.375 Z M 107.375 107.375 " fill-opacity="1" fill-rule="nonzero"/></g></g></svg>