<svg xmlns="http://www.w3.org/2000/svg" xmlns:xlink="http://www.w3.org/1999/xlink" width="1080" zoomAndPan="magnify" viewBox="0 0 810 809.999993" height="1080" preserveAspectRatio="xMidYMid meet" version="1.0"><path fill="#ffffff" d="M 412.941406 454.996094 C 407.859375 454.996094 402.839844 454.203125 397.851562 452.582031 L 166.605469 375.457031 C 162.414062 386.351562 160.316406 400.390625 160.316406 420.878906 C 175.40625 429.617188 190.113281 447.183594 190.113281 477.453125 C 190.113281 496.003906 180.835938 509.34375 172.863281 518.207031 C 207.167969 558.007812 301.574219 586.628906 412.972656 586.628906 C 553.339844 586.628906 667.089844 541.207031 667.089844 485.265625 C 667.089844 472.910156 667.089844 422.4375 667.089844 372.882812 L 427.964844 452.582031 C 423.042969 454.203125 418.023438 454.996094 412.941406 454.996094 Z M 412.941406 454.996094 " fill-opacity="1" fill-rule="nonzero"/><path fill="#ffffff" d="M 799.136719 254.941406 L 417.960938 127.882812 C 414.65625 126.804688 411.195312 126.804688 407.921875 127.882812 L 26.746094 254.941406 C 20.265625 257.101562 15.882812 263.167969 15.882812 270 C 15.882812 276.828125 20.265625 282.894531 26.746094 285.054688 L 114.128906 314.183594 C 94.023438 337.5 82.335938 370.375 78.046875 423.867188 C 64.226562 430.378906 54.476562 444.257812 54.476562 460.585938 C 54.476562 477.199219 64.449219 491.335938 78.679688 497.71875 C 66.261719 605.878906 1.492188 641.929688 1.492188 651.175781 C 1.492188 655.875 51.648438 682.9375 63.5625 682.9375 C 81.984375 682.9375 126.199219 651.683594 126.199219 584.183594 C 126.199219 544.414062 122.613281 514.363281 118.832031 493.050781 C 129.027344 485.648438 136.113281 474.183594 136.113281 460.585938 C 136.113281 445.753906 127.820312 433.363281 115.972656 426.21875 C 122.675781 337.941406 149.960938 323.171875 215.96875 295.792969 C 222.574219 293.1875 235.058594 288.136719 242.269531 285.148438 C 255.230469 279.8125 266.949219 275.046875 278.195312 270.539062 C 314.503906 256.117188 345.1875 244.523438 368.597656 235.914062 C 394.230469 226.765625 405.730469 223.429688 406.144531 223.304688 C 415.957031 220 426.886719 225.304688 430.253906 235.3125 C 433.589844 245.285156 428.25 256.085938 418.246094 259.453125 C 417.484375 259.707031 372.886719 272.445312 256.847656 320.410156 C 249.382812 323.488281 242.269531 326.285156 235.503906 328.953125 C 221.75 334.386719 210.347656 338.738281 200.785156 343.121094 L 407.921875 412.144531 C 409.574219 412.652344 411.226562 412.9375 412.941406 412.9375 C 414.65625 412.9375 416.308594 412.652344 417.960938 412.113281 L 799.136719 285.054688 C 805.617188 282.894531 810 276.828125 810 270 C 810 263.167969 805.617188 257.101562 799.136719 254.941406 Z M 799.136719 254.941406 " fill-opacity="1" fill-rule="nonzero"/></svg>